<?xml version="1.0" encoding="windows-1252"?>
<!-- Uploaded to: SVG Repo, www.svgrepo.com, Generator: SVG Repo Mixer Tools -->
<svg fill="#000000" height="800px" width="800px" version="1.1" id="Layer_1" xmlns="http://www.w3.org/2000/svg" xmlns:xlink="http://www.w3.org/1999/xlink" viewBox="0 0 511.999 511.999" xml:space="preserve">
<g>
	<g>
		<path d="M459.071,6.264c-8.649-6.253-19.423-7.919-29.56-4.573h0.001L189.564,80.92c-13.493,4.457-22.56,17-22.56,31.21v75.838    c0,0.001,0,0.001,0,0.001v196.947c-11.831,0.754-24.726,3.363-37.767,7.668c-50.423,16.65-89.921,53.375-89.921,83.608    c0,10.668,4.651,19.667,13.45,26.028c9.002,6.509,21.714,9.779,36.692,9.779c13.458,0,28.747-2.641,44.81-7.945    c50.424-16.65,89.921-53.375,89.921-83.608V180.183l191.308-63.17v185.851c-11.829,0.753-24.724,3.361-37.767,7.668    c-50.424,16.649-89.921,53.374-89.921,83.608c0,10.667,4.651,19.667,13.45,26.028c9.003,6.508,21.715,9.779,36.693,9.779    c13.457-0.001,28.745-2.641,44.81-7.945c50.423-16.65,89.921-53.375,89.921-83.608V32.899    C472.682,22.224,467.721,12.516,459.071,6.264z M208.145,420.446c0,20.435-31.707,52.787-78.907,68.372    c-28.201,9.312-54.528,9.471-67.073,0.4c-4.578-3.309-6.804-7.57-6.804-13.025c0-20.435,31.707-52.787,78.907-68.372    c14.063-4.644,27.775-7.087,39.735-7.087c0.313,0,0.626,0.001,0.937,0.005c2.152-0.011,4.206-0.812,5.728-2.319    c1.523-1.507,2.381-3.561,2.381-5.703V193.769l25.096-8.286V420.446z M183.049,176.872V112.13c0-7.274,4.64-13.694,11.547-15.974    l239.947-79.229c1.757-0.581,3.551-0.867,5.329-0.867c3.469,0,6.872,1.091,9.8,3.207c4.427,3.2,6.967,8.17,6.967,13.633v53.635    L183.049,176.872z M456.638,338.394L456.638,338.394c0,20.435-31.707,52.787-78.907,68.372c-28.201,9.311-54.529,9.469-67.073,0.4    c-4.578-3.311-6.804-7.57-6.804-13.025c0-20.437,31.706-52.787,78.907-68.372c14.434-4.766,28.486-7.238,40.671-7.082    c2.139,0.02,4.206-0.812,5.729-2.319c1.523-1.507,2.381-3.561,2.381-5.703V111.717l25.096-8.286V338.394z"/>
	</g>
</g>
</svg>